<svg xmlns="http://www.w3.org/2000/svg" width="48" height="48" viewBox="0 0 64 64" fill="none">
  <defs>
    <linearGradient id="g" x1="0" x2="1" y1="0" y2="1">
      <stop offset="0" stop-color="#c1121f" />
      <stop offset="0.52" stop-color="#f8fafc" stop-opacity="0.95" />
      <stop offset="1" stop-color="#1b3a8a" />
    </linearGradient>
  </defs>
  <path
    d="M32 4c10 6 18 7 24 8v21c0 14-9 22-24 27C17 55 8 47 8 33V12c6-1 14-2 24-8Z"
    fill="#0a1226"
    stroke="url(#g)"
    stroke-width="2"
  />
  <path
    d="M18 22h15c7 0 12 4 12 10 0 7-6 10-13 10H18V22Zm8 7v7h7c2.5 0 4-1.3 4-3.5S35.5 29 33 29h-7Z"
    fill="#f8fafc"
    opacity="0.95"
  />
  <path
    d="M40.5 21.5 47 28l-8 8"
    fill="none"
    stroke="#1b3a8a"
    stroke-width="2.4"
    stroke-linecap="round"
    stroke-linejoin="round"
    opacity="0.9"
  />
</svg>